<svg width="32" height="32" viewBox="0 0 32 32" fill="none" xmlns="http://www.w3.org/2000/svg">
<path d="M16 10.6666V17.3333" stroke="#4B5442" stroke-width="3" stroke-linecap="round" stroke-linejoin="round"/>
<path d="M10.68 7.28C12.28 6.46667 14.08 6 16 6C22.44 6 27.6667 11.2267 27.6667 17.6667" stroke="#4B5442" stroke-width="3" stroke-linecap="round" stroke-linejoin="round"/>
<path d="M16 29.3333C9.56 29.3333 4.33334 24.1067 4.33334 17.6667C4.33334 15.0267 5.21334 12.6 6.68 10.6533" stroke="#4B5442" stroke-width="3" stroke-linecap="round" stroke-linejoin="round"/>
<path d="M12 2.66663H20" stroke="#4B5442" stroke-width="3" stroke-miterlimit="10" stroke-linecap="round" stroke-linejoin="round"/>
<path d="M19.8667 24.6667V23.1201C19.8667 21.2134 21.2267 20.4267 22.88 21.3867L24.2134 22.1601L25.5467 22.9334C27.2 23.8934 27.2 25.4534 25.5467 26.4134L24.2134 27.1867L22.88 27.9601C21.2267 28.9201 19.8667 28.1334 19.8667 26.2267V24.6667Z" stroke="#4B5442" stroke-width="3" stroke-miterlimit="10" stroke-linecap="round" stroke-linejoin="round"/>
</svg>
