<svg width="24" height="25" viewBox="0 0 24 25" fill="none" xmlns="http://www.w3.org/2000/svg">
<mask id="mask0_63_1939" style="mask-type:luminance" maskUnits="userSpaceOnUse" x="0" y="0" width="24" height="25">
<path d="M23.8761 0H0V24.3594H23.8761V0Z" fill="white"/>
</mask>
<g mask="url(#mask0_63_1939)">
<path d="M23.8761 12.4593C23.8761 11.6313 23.809 10.7989 23.6657 9.98438H12.1775V14.6746H18.7563C18.4832 16.1873 17.6061 17.5254 16.3217 18.3756V21.4189H20.2466C22.5514 19.2976 23.8761 16.1649 23.8761 12.4593Z" fill="#4285F4"/>
<path d="M12.1775 24.3595C15.4624 24.3595 18.2327 23.2809 20.251 21.4191L16.3262 18.3759C15.2342 19.1188 13.8244 19.5395 12.182 19.5395C9.00446 19.5395 6.31029 17.3957 5.34361 14.5137H1.2934V17.6508C3.36103 21.7639 7.57235 24.3595 12.1775 24.3595Z" fill="#34A853"/>
<path d="M5.33909 14.5135C4.8289 13.0008 4.8289 11.3628 5.33909 9.85013V6.71289H1.29336C-0.434132 10.1545 -0.434132 14.2091 1.29336 17.6506L5.33909 14.5135Z" fill="#FBBC04"/>
<path d="M12.1775 4.81982C13.9139 4.79297 15.5922 5.44636 16.8498 6.64578L20.3271 3.1684C18.1253 1.10079 15.2028 -0.0359587 12.1775 -0.000155789C7.57233 -0.000155789 3.36103 2.59556 1.2934 6.7129L5.33913 9.85014C6.30133 6.96351 8.99998 4.81982 12.1775 4.81982Z" fill="#EA4335"/>
</g>
</svg>
